<?xml version="1.0" encoding="iso-8859-1"?>
<!-- Generator: Adobe Illustrator 19.0.0, SVG Export Plug-In . SVG Version: 6.00 Build 0)  -->
<svg version="1.1" id="Layer_1" xmlns="http://www.w3.org/2000/svg" xmlns:xlink="http://www.w3.org/1999/xlink" x="0px" y="0px"
	 viewBox="0 0 512 512" style="enable-background:new 0 0 512 512;" xml:space="preserve">
<g>
	<g>
		<rect x="94.815" width="37.926" height="63.21"/>
	</g>
</g>
<g>
	<g>
		<path d="M322.37,63.21v40.22c3.922,4.455,6.321,10.28,6.321,16.668c0,13.942-11.344,25.284-25.284,25.284
			s-25.284-11.342-25.284-25.284c0-6.388,2.399-12.212,6.321-16.668V63.21H132.741v40.22c3.922,4.455,6.321,10.28,6.321,16.668
			c0,13.942-11.342,25.284-25.284,25.284s-25.284-11.342-25.284-25.284c0-6.388,2.399-12.212,6.321-16.668V63.21h-63.21v107.457
			H385.58V63.21H322.37z"/>
	</g>
</g>
<g>
	<g>
		<rect x="284.444" width="37.926" height="63.21"/>
	</g>
</g>
<g>
	<g>
		<path d="M461.432,335.012c-15.672,0-50.438,6.321-69.531,6.321c-19.093,0-53.859-6.321-69.531-6.321
			c-10.455,0-18.963,8.507-18.963,18.963v75.852c0,14.538,37.926,30.657,37.926,66.37c0,8.714,7.088,15.802,15.802,15.802
			s15.802-7.088,15.802-15.802h0.056v-53.728h37.926v54.826c0.568,8.201,7.403,14.705,15.747,14.705
			c8.714,0,15.802-7.088,15.802-15.802c0-32.658,37.926-54.361,37.926-66.37v-75.852
			C480.395,343.519,471.888,335.012,461.432,335.012z"/>
	</g>
</g>
<g>
	<g>
		<path d="M32.237,208.593v208.593h233.244v-63.21c0-31.369,25.519-56.889,56.889-56.889c9.744,0,22.561,1.556,36.13,3.203
			c9.469,1.15,19.92,2.417,27.712,2.906v-94.604H32.237z M152.336,360.296H114.41V322.37h37.926V360.296z M152.336,284.444H114.41
			v-37.926h37.926V284.444z M228.188,360.296h-37.926V322.37h37.926V360.296z M228.188,284.444h-37.926v-37.926h37.926V284.444z
			 M304.039,284.444h-37.926v-37.926h37.926V284.444z"/>
	</g>
</g>
<g>
</g>
<g>
</g>
<g>
</g>
<g>
</g>
<g>
</g>
<g>
</g>
<g>
</g>
<g>
</g>
<g>
</g>
<g>
</g>
<g>
</g>
<g>
</g>
<g>
</g>
<g>
</g>
<g>
</g>
</svg>
