<svg height="512" viewBox="0 0 60 60" width="512" xmlns="http://www.w3.org/2000/svg"><g id="019---Therapist" fill="none"><g id="Layer_3" transform="translate(1 1)"><path id="Shape" d="m46 46.61c.000499 4.7053804-3.4852498 8.6829832-8.15 9.3h-12.8c.2418831-6.5197877 1.6121703-12.9482957 4.05-19 2.779285-.0905051 5.5613681.039905 8.32.39 4.8344511.4232613 8.5520288 4.4571364 8.58 9.31z" fill="#cad9fc"/><path id="Shape" d="m30.81 1.6c-.97 1.28-.81 2.4-.81 4.13-.2902153-.29748497-.6282291-.54423508-1-.73-2-1-3 0-6 0s-4-1-6 0-3 4-3 6c-.1222789 1.7020153-.4582516 3.3818786-1 5v.73c-.39-.31-1.29-.94-2-.66 0 0-1.16-9.19 1-12.07 3-4 11-4 11-4 2.680109.04366247 5.3286279.58625277 7.81 1.6z" fill="#e8edfc"/><path id="Shape" d="m13 16.73c-.69-.55-3-2.12-3 2.2 0 4.11 2.62 4.89 3.62 5z" fill="#cad9fc"/><path id="Shape" d="m29.11 36.86s-1.11 3.14-6.11 3.14-6.1-3.14-6.1-3.14c.4901814-1.882672.8246429-3.8024806 1-5.74 2.9563697 2.528693 7.3136303 2.528693 10.27 0 .158563 1.9354863.4729147 3.8550382.94 5.74z" fill="#e8edfc"/><path id="Shape" d="m32.29 23.61c-.2701734 1.1678647-.6623269 2.3041043-1.17 3.39-1.42 3-3.89 6-8.12 6s-6.72-3-8.14-6c-1.6-3.38-1.86-7.21-1.86-11 .5417484-1.6181214.8777211-3.2979847 1-5 0-2 1-5 3-6s3 0 6 0 4-1 6 0c.3717709.18576492.7097847.43251503 1 .73v14.27c.0023414 1.5445352.893714 2.9497122 2.29 3.61z" fill="#e8edfc"/><path id="Shape" d="m58 4v16c0 2.209139-1.790861 4-4 4-12.72 0-11.88-.08-12.26.19l-6.74 4.81v-4c0-.5522847-.4477153-1-1-1-2.209139 0-4-1.790861-4-4v-16c0-2.209139 1.790861-4 4-4h20c2.209139 0 4 1.790861 4 4z" fill="#7facfa"/><path id="Shape" d="m55 4v16c0 2.209139-1.790861 4-4 4-12.72 0-11.88-.08-12.26.19l-3.74 2.67v-1.86c0-.5522847-.4477153-1-1-1-2.209139 0-4-1.790861-4-4v-16c0-2.209139 1.790861-4 4-4h17c2.209139 0 4 1.790861 4 4z" fill="#a4c2f7"/><path id="Shape" d="m51 11v2c0 .5522847-.4477153 1-1 1h-3c-.5522847 0-1 .4477153-1 1v3c0 .5522847-.4477153 1-1 1h-2c-.5522847 0-1-.4477153-1-1v-3c0-.5522847-.4477153-1-1-1h-3c-.5522847 0-1-.4477153-1-1v-2c0-.5522847.4477153-1 1-1h3c.5522847 0 1-.44771525 1-1v-3c0-.55228475.4477153-1 1-1h2c.5522847 0 1 .44771525 1 1v3c0 .55228475.4477153 1 1 1h3c.5522847 0 1 .4477153 1 1z" fill="#e8edfc"/><path id="Shape" d="m29 37.1c-2.6243079 6.6564684-3.980949 13.7449179-4 20.9h-4c-.0053718-7.1888317-1.3622741-14.312569-4-21 1.78 4 10 4.06 12 .1z" fill="#a4c2f7"/><g fill="#e8edfc"><path id="Shape" d="m16.9 36.86c-2.779285-.0905051-5.5613681.039905-8.32.39-4.76596179.4190759-8.45478815 4.3545015-8.56500921 9.1375829s3.39341048 8.8842495 8.13500921 9.5224171c.39526663 1.2417005 1.54691075 2.0862395 2.85 2.09h10c-.0282209-7.2414923-1.4190965-14.4129826-4.1-21.14z"/><path id="Shape" d="m34.42 37.25c-1.7636302-.239237-3.5403357-.3694842-5.32-.39-1.1484042 2.7437903-2.0356607 5.5897071-2.65 8.5-.9453882 4.1474128-1.4316463 8.3862423-1.45 12.6400007l10-.0000007c.8150801.0005481 1.5952976-.3305773 2.1611785-.9172072.565881-.5866299.868708-1.3782606.8388215-2.1927928 3.680504-1.9438809 5.6398024-6.0807042 4.8119483-10.1598512-.8278541-4.0791469-4.2448341-7.1248662-8.3919483-7.4801488z"/></g></g><g id="Layer_3_copy" fill="#fff" transform="translate(1 1)"><path id="Shape" d="m10 18.93c0 4.11 2.67 5 3.83 5.09.6093473 2.7072846 2.0002089 5.176064 4 7.1-.1753571 1.9375194-.5098186 3.857328-1 5.74h3c.4901814-1.882672.8246429-3.8024806 1-5.74-4.38-3.74-4.21-7.12-4.21-7.12-1-.15-3.62-.93-3.62-5 0-1.89.44-2.65 1-2.87 0-.13-1.15-9.26 1-12.13s7.05-3.71 9.51-3.92c-3.95-.34-10.13.75-12.51 3.92-2.15 2.87-1 12-1 12.06-.56.22-1 .94-1 2.87z"/><path id="Shape" d="m2.47 40.26c-2.36280663 2.5793191-3.09603925 6.2581997-1.90265936 9.5462975 1.19337988 3.2880977 4.11552834 5.6402969 7.58265936 6.1037025.39526663 1.2417005 1.54691075 2.0862395 2.85 2.09h3c-1.3030893-.0037605-2.4547334-.8482995-2.85-2.09-4.74159873-.6381676-8.24523027-4.7393357-8.13500921-9.5224171s3.79904742-8.718507 8.56500921-9.1375829c3.41-.29 3.93-.37 5-.39-2.6727424-.0773518-5.3474553.0530405-8 .39-2.34213772.2013613-4.52302137 1.275741-6.11 3.01z"/></g><path id="Shape" d="m3.63 42.65-1.63-1.18c1.77162924-2.4155615 4.4963455-3.9527677 7.48-4.22l.18 2c-2.4068505.2088137-4.60568917 1.4486233-6.03 3.4z" fill="#fff"/><g fill="#428dff"><path id="Shape" d="m8.45 57.8c.67616977 1.3419216 2.0473724 2.1916809 3.55 2.2h24c1.5026276-.0083191 2.8738302-.8580784 3.55-2.2 5.0822769-.9744667 8.67272-5.5403828 8.4211999-10.7091216-.2515202-5.1687389-4.2683209-9.3644728-9.4211999-9.8408784-2.5222464-.3323051-5.0669968-.4627193-7.61-.39-.3313632-1.4401346-.5718377-2.8996813-.72-4.37 1.8175569-1.8300095 3.1212548-4.1063075 3.78-6.6.3287875.0701931.6638162.1070463 1 .11v4c.0017214.3734839.2114292.7148812.5437871.8852672s.7319664.1413597 1.0362129-.0752672l6.74-4.81h11.68c2.7614237 0 5-2.2385763 5-5v-16c0-2.76142375-2.2385763-5-5-5h-20c-1.2873477.00512663-2.5231125.5065964-3.45 1.4-2.421677-.88189939-4.9731332-1.3550171-7.55-1.4-.35 0-8.54.05-11.8 4.4-2.1 2.81-1.49 10.06-1.2 12.2-.94.94-.95 2.69-.95 3.33 0 4.38 2.66 5.6 4 5.94.6561882 2.5108397 1.9675717 4.8023098 3.8 6.64-.1402487 1.4634544-.3740604 2.9164269-.7 4.35-2.5462965-.0699757-5.0941528.0604264-7.62.39-.55228475.0248528-.97985281.4927153-.955 1.045s.49271525.9798528 1.045.955l4.25-.37c-1.1582174 1.0457113-2.0935455 2.3143563-2.75 3.73-.1094037.2563685-.1068419.5467652.0070679.8011636.1139098.2543985.328829.4497097.5929321.5388364 1.2794527.4630046 2.3461062 1.376771 3 2.57-.6502142.5540106-1.1809695 1.2344661-1.56 2-.2186549.4319328-.0964999.9584631.29 1.25 2.69 2 5.44 6 6.82 8.2h-8.27c-1.1045695 0-2-.8954305-2-2v-5.97c0-.5522847-.44771525-1-1-1s-1 .4477153-1 1v5.64c-2.61728049-.7754703-4.69282931-2.777135-5.56261608-5.3646014-.86978678-2.5874664-.4247924-5.4364213 1.19261608-7.6353986.28243193-.4393878.20634669-1.0184809-.18-1.37-.21515191-.1754085-.49353519-.2534914-.76852575-.2155617s-.52184116.1884588-.68147425.4155617c-2.09876017 2.8769001-2.57793922 6.6282325-1.26973418 9.9403237 1.30820503 3.3120912 4.22151948 5.7234613 7.71973418 6.3896763zm14.55.2c-.1196164-5.6689533-1.0455703-11.2920189-2.75-16.7 2.4253956.9402485 5.1146044.9402485 7.54 0-1.7180014 5.4060093-2.6574311 11.029119-2.79 16.7zm-4-20.24c.3105318-1.2787211.5475865-2.5741748.71-3.88 2.688998 1.5107661 5.971002 1.5107661 8.66 0 .1629333 1.313053.4033527 2.615325.72 3.9-1.76 2.98-8.41 3-10.09-.02zm19.37 1.49c4.0152477.349793 7.2127202 3.5084034 7.6115849 7.5190736.3988647 4.0106703-2.1138779 7.7371666-5.9815849 8.8709264v-5.64c0-.5522847-.4477153-1-1-1s-1 .4477153-1 1v6c0 1.1045695-.8954305 2-2 2h-8.22c1.38-2.18 4.13-6.18 6.82-8.2.3864999-.2915369.5086549-.8180672.29-1.25-.3795032-.7652367-.9101892-1.4456033-1.56-2 .6499022-1.1942411 1.7184019-2.1060275 3-2.56.2641031-.0891267.4790223-.2844379.5929321-.5388364.1139098-.2543984.1164716-.5447951.0070679-.8011636-.6539463-1.4116016-1.5858568-2.676823-2.74-3.72zm-7.64-.19c1.648106.6914678 3.0247788 1.9030804 3.92 3.45-1.6408196.9272588-2.9015808 2.4040493-3.56 4.17-.1012489.2990453-.0553285.6283419.1238704.8882787.1791989.2599369.4706275.4199816.7861296.4317213.3053915.1929424.5593399.4571859.74.77-2.1222455 1.9502447-3.9933148 4.1572331-5.57 6.57.3800608-5.5683098 1.5657362-11.0520584 3.52-16.28zm1.27-34.06c0-1.65685425 1.3431458-3 3-3h20c1.6568542 0 3 1.34314575 3 3v16c0 1.6568542-1.3431458 3-3 3h-12c-.46 0-.18-.1-6 4.06v-3.06c0-.5522847-.4477153-1-1-1h-1c-1.6568542 0-3-1.3431458-3-3zm-20 14.93c0-1.62.36-1.93.36-1.93.2407652.0120972.4716411.0995502.66.25.0123411 1.7479217.1527168 3.4925909.42 5.22-.76-.53-1.44-1.56-1.44-3.54zm2-7.93c-.0897654 1.4099687-.3517117 2.8036573-.78 4.15-.1038642-.0391947-.210932-.0693075-.32-.09-.28-2.87-.52-8.56.9-10.46 2.66-3.55 10.12-3.6 10.2-3.6 2.1694188.04856048 4.3195747.419277 6.38 1.1-.2381195.5744536-.3669903 1.18828578-.38 1.81-2.1-.85-3.32.09-6 .09-2.87 0-4.1-1.07-6.45.11s-3.55 4.41-3.55 6.89zm2.76 15.57c-1.51-3.19-1.76-6.84-1.76-10.42.5561152-1.6658116.8922914-3.3971192 1-5.15 0-1.87 1-4.37 2.45-5.11s2.61.11 5.41.11c3.38 0 4.51-1.09 6.14.18v13.82c.0046456 1.625364.799052 3.1470439 2.13 4.08-1.13 4.14-3.77 7.92-8.13 7.92-3.11 0-5.54-1.83-7.24-5.43zm-1.46 21.2c.1818043-.299175.4194542-.56059.7-.77.3313201.0176044.6497991-.1302685.8501516-.3947337.2003524-.2644652.2564878-.6110833.1498484-.9252663-.6584192-1.7659507-1.9191804-3.2427412-3.56-4.17.8839896-1.5560926 2.264222-2.7708379 3.92-3.45 1.9754619 5.2236567 3.1748679 10.7085808 3.56 16.28-1.5895765-2.4176347-3.4778194-4.6250646-5.62-6.57z"/><path id="Shape" d="m6.79 39.41c0-.5522847-.44771525-1-1-1s-1 .4477153-1 1 .44771525 1 1 1 1-.4477153 1-1z"/><path id="Shape" d="m39 16h3v3c0 1.1045695.8954305 2 2 2h2c1.1045695 0 2-.8954305 2-2v-3h3c1.1045695 0 2-.8954305 2-2v-2c0-1.1045695-.8954305-2-2-2h-3v-3c0-1.1045695-.8954305-2-2-2h-2c-1.1045695 0-2 .8954305-2 2v3h-3c-1.1045695 0-2 .8954305-2 2v2c0 1.1045695.8954305 2 2 2zm0-4h3c1.1045695 0 2-.8954305 2-2v-3h2v3c0 1.1045695.8954305 2 2 2h3v2h-3c-1.1045695 0-2 .8954305-2 2v3h-2v-3c0-1.1045695-.8954305-2-2-2h-3z"/></g></g></svg>